<mxfile host="app.diagrams.net" agent="Mozilla/5.0 (Windows NT 10.0; Win64; x64) AppleWebKit/537.36 (KHTML, like Gecko) Chrome/129.0.0.0 Safari/537.36" version="24.8.6">
  <diagram id="JMS85RhgVy-_rKF5LAzT" name="Trang-1">
    <mxGraphModel dx="1184" dy="625" grid="1" gridSize="10" guides="1" tooltips="1" connect="1" arrows="1" fold="1" page="1" pageScale="1" pageWidth="1654" pageHeight="2336" math="0" shadow="0">
      <root>
        <mxCell id="0" />
        <mxCell id="1" parent="0" />
        <mxCell id="LaVqmPuPDn0VkfL_galz-16" style="edgeStyle=orthogonalEdgeStyle;rounded=0;orthogonalLoop=1;jettySize=auto;html=1;exitX=1;exitY=0.5;exitDx=0;exitDy=0;entryX=0;entryY=0.5;entryDx=0;entryDy=0;" edge="1" parent="1" source="LaVqmPuPDn0VkfL_galz-1" target="LaVqmPuPDn0VkfL_galz-12">
          <mxGeometry relative="1" as="geometry" />
        </mxCell>
        <mxCell id="LaVqmPuPDn0VkfL_galz-19" style="edgeStyle=orthogonalEdgeStyle;rounded=0;orthogonalLoop=1;jettySize=auto;html=1;exitX=0.5;exitY=0;exitDx=0;exitDy=0;" edge="1" parent="1" source="LaVqmPuPDn0VkfL_galz-1">
          <mxGeometry relative="1" as="geometry">
            <mxPoint x="639.9473684210527" y="800" as="targetPoint" />
          </mxGeometry>
        </mxCell>
        <mxCell id="LaVqmPuPDn0VkfL_galz-1" value="" style="ellipse;whiteSpace=wrap;html=1;aspect=fixed;" vertex="1" parent="1">
          <mxGeometry x="600" y="880" width="80" height="80" as="geometry" />
        </mxCell>
        <mxCell id="LaVqmPuPDn0VkfL_galz-41" style="edgeStyle=orthogonalEdgeStyle;rounded=0;orthogonalLoop=1;jettySize=auto;html=1;exitX=0.5;exitY=0;exitDx=0;exitDy=0;" edge="1" parent="1" source="LaVqmPuPDn0VkfL_galz-4">
          <mxGeometry relative="1" as="geometry">
            <mxPoint x="1239.947368421053" y="800" as="targetPoint" />
          </mxGeometry>
        </mxCell>
        <mxCell id="LaVqmPuPDn0VkfL_galz-4" value="" style="ellipse;whiteSpace=wrap;html=1;aspect=fixed;" vertex="1" parent="1">
          <mxGeometry x="1200" y="880" width="80" height="80" as="geometry" />
        </mxCell>
        <mxCell id="LaVqmPuPDn0VkfL_galz-6" value="&lt;b style=&quot;font-size: 20px;&quot;&gt;. . .&lt;/b&gt;" style="text;html=1;align=center;verticalAlign=middle;whiteSpace=wrap;rounded=0;fontSize=20;" vertex="1" parent="1">
          <mxGeometry x="1055" y="930" width="60" height="30" as="geometry" />
        </mxCell>
        <mxCell id="LaVqmPuPDn0VkfL_galz-11" value="" style="endArrow=classic;html=1;rounded=0;entryX=0.5;entryY=1;entryDx=0;entryDy=0;" edge="1" parent="1" target="LaVqmPuPDn0VkfL_galz-1">
          <mxGeometry width="50" height="50" relative="1" as="geometry">
            <mxPoint x="640" y="1040" as="sourcePoint" />
            <mxPoint x="970" y="950" as="targetPoint" />
          </mxGeometry>
        </mxCell>
        <mxCell id="LaVqmPuPDn0VkfL_galz-17" style="edgeStyle=orthogonalEdgeStyle;rounded=0;orthogonalLoop=1;jettySize=auto;html=1;exitX=1;exitY=0.5;exitDx=0;exitDy=0;entryX=0;entryY=0.5;entryDx=0;entryDy=0;" edge="1" parent="1" source="LaVqmPuPDn0VkfL_galz-12" target="LaVqmPuPDn0VkfL_galz-14">
          <mxGeometry relative="1" as="geometry" />
        </mxCell>
        <mxCell id="LaVqmPuPDn0VkfL_galz-21" style="edgeStyle=orthogonalEdgeStyle;rounded=0;orthogonalLoop=1;jettySize=auto;html=1;exitX=0.5;exitY=0;exitDx=0;exitDy=0;" edge="1" parent="1" source="LaVqmPuPDn0VkfL_galz-12">
          <mxGeometry relative="1" as="geometry">
            <mxPoint x="799.9473684210527" y="800" as="targetPoint" />
          </mxGeometry>
        </mxCell>
        <mxCell id="LaVqmPuPDn0VkfL_galz-12" value="" style="ellipse;whiteSpace=wrap;html=1;aspect=fixed;" vertex="1" parent="1">
          <mxGeometry x="760" y="880" width="80" height="80" as="geometry" />
        </mxCell>
        <mxCell id="LaVqmPuPDn0VkfL_galz-13" value="" style="endArrow=classic;html=1;rounded=0;entryX=0.5;entryY=1;entryDx=0;entryDy=0;" edge="1" target="LaVqmPuPDn0VkfL_galz-12" parent="1">
          <mxGeometry width="50" height="50" relative="1" as="geometry">
            <mxPoint x="800" y="1040" as="sourcePoint" />
            <mxPoint x="1120" y="950" as="targetPoint" />
          </mxGeometry>
        </mxCell>
        <mxCell id="LaVqmPuPDn0VkfL_galz-22" style="edgeStyle=orthogonalEdgeStyle;rounded=0;orthogonalLoop=1;jettySize=auto;html=1;exitX=0.5;exitY=0;exitDx=0;exitDy=0;" edge="1" parent="1" source="LaVqmPuPDn0VkfL_galz-14">
          <mxGeometry relative="1" as="geometry">
            <mxPoint x="959.9473684210527" y="800" as="targetPoint" />
          </mxGeometry>
        </mxCell>
        <mxCell id="LaVqmPuPDn0VkfL_galz-23" style="edgeStyle=orthogonalEdgeStyle;rounded=0;orthogonalLoop=1;jettySize=auto;html=1;exitX=1;exitY=0.5;exitDx=0;exitDy=0;" edge="1" parent="1" source="LaVqmPuPDn0VkfL_galz-14">
          <mxGeometry relative="1" as="geometry">
            <mxPoint x="1040" y="919.9473684210527" as="targetPoint" />
          </mxGeometry>
        </mxCell>
        <mxCell id="LaVqmPuPDn0VkfL_galz-14" value="" style="ellipse;whiteSpace=wrap;html=1;aspect=fixed;" vertex="1" parent="1">
          <mxGeometry x="920" y="880" width="80" height="80" as="geometry" />
        </mxCell>
        <mxCell id="LaVqmPuPDn0VkfL_galz-15" value="" style="endArrow=classic;html=1;rounded=0;entryX=0.5;entryY=1;entryDx=0;entryDy=0;" edge="1" target="LaVqmPuPDn0VkfL_galz-14" parent="1">
          <mxGeometry width="50" height="50" relative="1" as="geometry">
            <mxPoint x="960" y="1040" as="sourcePoint" />
            <mxPoint x="1290" y="950" as="targetPoint" />
          </mxGeometry>
        </mxCell>
        <mxCell id="LaVqmPuPDn0VkfL_galz-18" value="" style="endArrow=classic;html=1;rounded=0;entryX=0;entryY=0.5;entryDx=0;entryDy=0;" edge="1" parent="1" target="LaVqmPuPDn0VkfL_galz-1">
          <mxGeometry width="50" height="50" relative="1" as="geometry">
            <mxPoint x="520" y="920" as="sourcePoint" />
            <mxPoint x="970" y="950" as="targetPoint" />
          </mxGeometry>
        </mxCell>
        <mxCell id="LaVqmPuPDn0VkfL_galz-24" value="" style="endArrow=classic;html=1;rounded=0;entryX=0;entryY=0.5;entryDx=0;entryDy=0;" edge="1" parent="1" target="LaVqmPuPDn0VkfL_galz-4">
          <mxGeometry width="50" height="50" relative="1" as="geometry">
            <mxPoint x="1120" y="920" as="sourcePoint" />
            <mxPoint x="650" y="930" as="targetPoint" />
          </mxGeometry>
        </mxCell>
        <mxCell id="LaVqmPuPDn0VkfL_galz-25" value="&lt;b&gt;U&lt;/b&gt;" style="text;html=1;align=center;verticalAlign=middle;whiteSpace=wrap;rounded=0;fontSize=17;" vertex="1" parent="1">
          <mxGeometry x="1239" y="980" width="60" height="30" as="geometry" />
        </mxCell>
        <mxCell id="LaVqmPuPDn0VkfL_galz-26" value="&lt;b&gt;U&lt;/b&gt;" style="text;html=1;align=center;verticalAlign=middle;whiteSpace=wrap;rounded=0;fontSize=17;" vertex="1" parent="1">
          <mxGeometry x="640" y="980" width="60" height="30" as="geometry" />
        </mxCell>
        <mxCell id="LaVqmPuPDn0VkfL_galz-27" value="&lt;b&gt;U&lt;/b&gt;" style="text;html=1;align=center;verticalAlign=middle;whiteSpace=wrap;rounded=0;fontSize=17;" vertex="1" parent="1">
          <mxGeometry x="800" y="980" width="60" height="30" as="geometry" />
        </mxCell>
        <mxCell id="LaVqmPuPDn0VkfL_galz-28" value="&lt;b&gt;U&lt;/b&gt;" style="text;html=1;align=center;verticalAlign=middle;whiteSpace=wrap;rounded=0;fontSize=17;" vertex="1" parent="1">
          <mxGeometry x="970" y="980" width="60" height="30" as="geometry" />
        </mxCell>
        <mxCell id="LaVqmPuPDn0VkfL_galz-30" value="" style="endArrow=classic;html=1;rounded=0;entryX=0.5;entryY=1;entryDx=0;entryDy=0;" edge="1" parent="1" target="LaVqmPuPDn0VkfL_galz-4">
          <mxGeometry width="50" height="50" relative="1" as="geometry">
            <mxPoint x="1240" y="1040" as="sourcePoint" />
            <mxPoint x="970" y="970" as="targetPoint" />
          </mxGeometry>
        </mxCell>
        <mxCell id="LaVqmPuPDn0VkfL_galz-31" value="&lt;b&gt;W&lt;/b&gt;" style="text;html=1;align=center;verticalAlign=middle;whiteSpace=wrap;rounded=0;fontSize=17;" vertex="1" parent="1">
          <mxGeometry x="530" y="930" width="60" height="30" as="geometry" />
        </mxCell>
        <mxCell id="LaVqmPuPDn0VkfL_galz-32" value="&lt;b&gt;W&lt;/b&gt;" style="text;html=1;align=center;verticalAlign=middle;whiteSpace=wrap;rounded=0;fontSize=17;" vertex="1" parent="1">
          <mxGeometry x="690" y="930" width="60" height="30" as="geometry" />
        </mxCell>
        <mxCell id="LaVqmPuPDn0VkfL_galz-33" value="&lt;b&gt;W&lt;/b&gt;" style="text;html=1;align=center;verticalAlign=middle;whiteSpace=wrap;rounded=0;fontSize=17;" vertex="1" parent="1">
          <mxGeometry x="850" y="930" width="60" height="30" as="geometry" />
        </mxCell>
        <mxCell id="LaVqmPuPDn0VkfL_galz-34" value="&lt;b&gt;W&lt;/b&gt;" style="text;html=1;align=center;verticalAlign=middle;whiteSpace=wrap;rounded=0;fontSize=17;" vertex="1" parent="1">
          <mxGeometry x="1130" y="930" width="60" height="30" as="geometry" />
        </mxCell>
        <mxCell id="LaVqmPuPDn0VkfL_galz-35" value="&lt;b&gt;W&lt;/b&gt;" style="text;html=1;align=center;verticalAlign=middle;whiteSpace=wrap;rounded=0;fontSize=17;" vertex="1" parent="1">
          <mxGeometry x="995" y="930" width="60" height="30" as="geometry" />
        </mxCell>
        <mxCell id="LaVqmPuPDn0VkfL_galz-36" value="&lt;b&gt;S&lt;sub&gt;n&lt;/sub&gt;&lt;/b&gt;" style="text;html=1;align=center;verticalAlign=middle;whiteSpace=wrap;rounded=0;fontSize=17;" vertex="1" parent="1">
          <mxGeometry x="1260" y="870" width="60" height="30" as="geometry" />
        </mxCell>
        <mxCell id="LaVqmPuPDn0VkfL_galz-37" value="&lt;b&gt;S2&lt;/b&gt;" style="text;html=1;align=center;verticalAlign=middle;whiteSpace=wrap;rounded=0;fontSize=17;" vertex="1" parent="1">
          <mxGeometry x="980" y="870" width="60" height="30" as="geometry" />
        </mxCell>
        <mxCell id="LaVqmPuPDn0VkfL_galz-38" value="&lt;b&gt;S1&lt;/b&gt;" style="text;html=1;align=center;verticalAlign=middle;whiteSpace=wrap;rounded=0;fontSize=17;" vertex="1" parent="1">
          <mxGeometry x="820" y="870" width="60" height="30" as="geometry" />
        </mxCell>
        <mxCell id="LaVqmPuPDn0VkfL_galz-39" value="&lt;b&gt;S1&lt;/b&gt;" style="text;html=1;align=center;verticalAlign=middle;whiteSpace=wrap;rounded=0;fontSize=17;" vertex="1" parent="1">
          <mxGeometry x="660" y="870" width="60" height="30" as="geometry" />
        </mxCell>
        <mxCell id="LaVqmPuPDn0VkfL_galz-40" value="&lt;b&gt;S0&lt;/b&gt;" style="text;html=1;align=center;verticalAlign=middle;whiteSpace=wrap;rounded=0;fontSize=17;" vertex="1" parent="1">
          <mxGeometry x="460" y="890" width="60" height="30" as="geometry" />
        </mxCell>
        <mxCell id="LaVqmPuPDn0VkfL_galz-44" value="&lt;span style=&quot;font-size: 14.1667px;&quot;&gt;&lt;b&gt;Y&lt;sub&gt;n&lt;/sub&gt;&lt;/b&gt;&lt;/span&gt;" style="text;html=1;align=center;verticalAlign=middle;whiteSpace=wrap;rounded=0;fontSize=17;" vertex="1" parent="1">
          <mxGeometry x="1210" y="760" width="60" height="30" as="geometry" />
        </mxCell>
        <mxCell id="LaVqmPuPDn0VkfL_galz-45" value="&lt;span style=&quot;font-size: 14.1667px;&quot;&gt;&lt;b&gt;Y&lt;sub&gt;3&lt;/sub&gt;&lt;/b&gt;&lt;/span&gt;" style="text;html=1;align=center;verticalAlign=middle;whiteSpace=wrap;rounded=0;fontSize=17;" vertex="1" parent="1">
          <mxGeometry x="930" y="760" width="60" height="30" as="geometry" />
        </mxCell>
        <mxCell id="LaVqmPuPDn0VkfL_galz-46" value="&lt;span style=&quot;font-size: 14.1667px;&quot;&gt;&lt;b&gt;Y&lt;sub&gt;2&lt;/sub&gt;&lt;/b&gt;&lt;/span&gt;" style="text;html=1;align=center;verticalAlign=middle;whiteSpace=wrap;rounded=0;fontSize=17;" vertex="1" parent="1">
          <mxGeometry x="770" y="760" width="60" height="30" as="geometry" />
        </mxCell>
        <mxCell id="LaVqmPuPDn0VkfL_galz-47" value="&lt;b style=&quot;&quot;&gt;&lt;span style=&quot;font-size: 14.1667px;&quot;&gt;Y&lt;/span&gt;&lt;span style=&quot;font-size: 11.8056px;&quot;&gt;&lt;sub&gt;1&lt;/sub&gt;&lt;/span&gt;&lt;/b&gt;" style="text;html=1;align=center;verticalAlign=middle;whiteSpace=wrap;rounded=0;fontSize=17;" vertex="1" parent="1">
          <mxGeometry x="610" y="760" width="60" height="30" as="geometry" />
        </mxCell>
        <mxCell id="LaVqmPuPDn0VkfL_galz-48" value="&lt;span style=&quot;font-size: 14.1667px;&quot;&gt;&lt;b&gt;^&lt;/b&gt;&lt;/span&gt;" style="text;html=1;align=center;verticalAlign=middle;whiteSpace=wrap;rounded=0;fontSize=17;" vertex="1" parent="1">
          <mxGeometry x="610" y="750" width="60" height="30" as="geometry" />
        </mxCell>
        <mxCell id="LaVqmPuPDn0VkfL_galz-49" value="&lt;span style=&quot;font-size: 14.1667px;&quot;&gt;&lt;b&gt;^&lt;/b&gt;&lt;/span&gt;" style="text;html=1;align=center;verticalAlign=middle;whiteSpace=wrap;rounded=0;fontSize=17;" vertex="1" parent="1">
          <mxGeometry x="770" y="750" width="60" height="30" as="geometry" />
        </mxCell>
        <mxCell id="LaVqmPuPDn0VkfL_galz-50" value="&lt;span style=&quot;font-size: 14.1667px;&quot;&gt;&lt;b&gt;^&lt;/b&gt;&lt;/span&gt;" style="text;html=1;align=center;verticalAlign=middle;whiteSpace=wrap;rounded=0;fontSize=17;" vertex="1" parent="1">
          <mxGeometry x="930" y="750" width="60" height="30" as="geometry" />
        </mxCell>
        <mxCell id="LaVqmPuPDn0VkfL_galz-51" value="&lt;span style=&quot;font-size: 14.1667px;&quot;&gt;&lt;b&gt;^&lt;/b&gt;&lt;/span&gt;" style="text;html=1;align=center;verticalAlign=middle;whiteSpace=wrap;rounded=0;fontSize=17;" vertex="1" parent="1">
          <mxGeometry x="1210" y="750" width="60" height="30" as="geometry" />
        </mxCell>
        <mxCell id="LaVqmPuPDn0VkfL_galz-52" value="&lt;b&gt;X&lt;sub&gt;1&lt;/sub&gt;&lt;/b&gt;" style="text;html=1;align=center;verticalAlign=middle;whiteSpace=wrap;rounded=0;fontSize=17;" vertex="1" parent="1">
          <mxGeometry x="610" y="1060" width="60" height="30" as="geometry" />
        </mxCell>
        <mxCell id="LaVqmPuPDn0VkfL_galz-53" value="&lt;b&gt;X&lt;sub&gt;2&lt;/sub&gt;&lt;/b&gt;" style="text;html=1;align=center;verticalAlign=middle;whiteSpace=wrap;rounded=0;fontSize=17;" vertex="1" parent="1">
          <mxGeometry x="770" y="1060" width="60" height="30" as="geometry" />
        </mxCell>
        <mxCell id="LaVqmPuPDn0VkfL_galz-54" value="&lt;b&gt;X&lt;sub&gt;3&lt;/sub&gt;&lt;/b&gt;" style="text;html=1;align=center;verticalAlign=middle;whiteSpace=wrap;rounded=0;fontSize=17;" vertex="1" parent="1">
          <mxGeometry x="930" y="1060" width="60" height="30" as="geometry" />
        </mxCell>
        <mxCell id="LaVqmPuPDn0VkfL_galz-55" value="&lt;b&gt;X&lt;sub&gt;n&lt;/sub&gt;&lt;/b&gt;" style="text;html=1;align=center;verticalAlign=middle;whiteSpace=wrap;rounded=0;fontSize=17;" vertex="1" parent="1">
          <mxGeometry x="1210" y="1060" width="60" height="30" as="geometry" />
        </mxCell>
      </root>
    </mxGraphModel>
  </diagram>
</mxfile>
